# xmcd
#
# Track frame offsets:
#	150
#	20100
#	37390
#	51320
#	65185
#	82527
#	99775
#	114354
#	124450
#	141400
#	158290
#	173690
#
# Disc length: 2593 seconds
#
# Revision: 0
# Processed by: cddbd v1.5.1PL0 Copyright (c) Steve Scherf et al.
# Submitted via: dBpowerAMP V4.0
#
DISCID=9f0a1f0c
DTITLE=Pablo Milanés - Grandes Exitos Vol. 2
DYEAR=1900
DGENRE=Latin
TTITLE0=El Breve Espacio En Que No Estás
TTITLE1=Abril
TTITLE2=Tu Alma y La Mía
TTITLE3=La Muerte Del Animal
TTITLE4=Mírame Bien
TTITLE5=Blas
TTITLE6=Ya Ves
TTITLE7=Verdad Amarga
TTITLE8=Peldaños
TTITLE9=Quiero Poner En La Tierra Mis Pies
TTITLE10=Eso No Es Amor
TTITLE11=Con Palo de Yaya
EXTD=
EXTT0=
EXTT1=
EXTT2=
EXTT3=
EXTT4=
EXTT5=
EXTT6=
EXTT7=
EXTT8=
EXTT9=
EXTT10=
EXTT11=
PLAYORDER=
